<?xml version="1.0" encoding="utf-8"?>
<!-- Svg Vector Icons : http://www.onlinewebfonts.com/icon -->
<!DOCTYPE svg PUBLIC "-//W3C//DTD SVG 1.1//EN" "http://www.w3.org/Graphics/SVG/1.1/DTD/svg11.dtd">
<svg version="1.1" xmlns="http://www.w3.org/2000/svg" xmlns:xlink="http://www.w3.org/1999/xlink" x="0px" y="0px" viewBox="0 0 1000 1000" enable-background="new 0 0 1000 1000" xml:space="preserve">
<metadata> Svg Vector Icons : http://www.onlinewebfonts.com/icon </metadata>
<g><g><g><g><path d="M501,10C230.8,10,10,230.8,10,501s220.8,489,491,489s489-218.7,489-489S771.3,10,501,10z M501,901.3c-220.8,0-400.3-179.5-400.3-400.3S280.3,100.8,501,100.8S901.3,280.3,901.3,501S721.8,901.3,501,901.3z"/><path d="M567.1,676.4L525.8,695l53.6-274.4c6.2-28.9-24.8-59.8-57.8-41.3L420.6,435c-18.6,10.3-24.8,35.1-14.4,53.6s35.1,24.8,53.6,14.4l24.8-12.4l-51.6,262c-4.1,22.7,14.4,47.5,39.2,47.5c6.2,0,12.4-2.1,16.5-4.1L598,748.6c20.6-8.3,28.9-30.9,20.6-51.6C610.4,676.4,587.7,668.1,567.1,676.4z"/><path d="M540.2,305c30.9,0,55.7-24.8,55.7-55.7s-24.8-55.7-55.7-55.7s-55.7,24.8-55.7,55.7S509.3,305,540.2,305z"/></g></g></g><g></g><g></g><g></g><g></g><g></g><g></g><g></g><g></g><g></g><g></g><g></g><g></g><g></g><g></g><g></g></g>
</svg>